<svg width="24" height="24" viewBox="0 0 24 24" fill="none" xmlns="http://www.w3.org/2000/svg">
<path d="M19.5 5H4.5C3.67157 5 3 5.67157 3 6.5V9.5C3 10.3284 3.67157 11 4.5 11H19.5C20.3284 11 21 10.3284 21 9.5V6.5C21 5.67157 20.3284 5 19.5 5Z" stroke="#242E49" stroke-width="2"/>
<rect x="17" y="7" width="2" height="2" rx="0.5" fill="#0F67FE"/>
<rect x="14" y="7" width="2" height="2" rx="0.5" fill="#0F67FE"/>
<path d="M19.5 14H4.5C3.67157 14 3 14.6716 3 15.5V18.5C3 19.3284 3.67157 20 4.5 20H19.5C20.3284 20 21 19.3284 21 18.5V15.5C21 14.6716 20.3284 14 19.5 14Z" stroke="#242E49" stroke-width="2"/>
<rect x="17" y="16" width="2" height="2" rx="0.5" fill="#0F67FE"/>
<rect x="14" y="16" width="2" height="2" rx="0.5" fill="#0F67FE"/>
</svg>
