<svg width="24" height="24" viewBox="0 0 24 24" fill="none" xmlns="http://www.w3.org/2000/svg">
<path fill-rule="evenodd" clip-rule="evenodd" d="M10.0003 5.24797C10.0003 4.00645 11.0068 3 12.2483 3H14.0003V5.28988C15.0512 5.60263 15.9986 6.1555 16.779 6.88487C16.7972 6.90186 16.8243 6.90507 16.8459 6.89263V6.89263C17.9221 6.27128 19.2982 6.64001 19.9196 7.71622L20.7945 9.23168L18.8112 10.3768C18.9348 10.8977 19.0003 11.4412 19.0003 12C19.0003 12.544 18.9383 13.0735 18.8209 13.5818C18.8153 13.606 18.826 13.6311 18.8476 13.6435V13.6435C19.9228 14.2643 20.2912 15.6393 19.6704 16.7145L18.7945 18.2317L16.81 17.0859C16.0337 17.8204 15.0893 18.379 14.0405 18.698C14.0167 18.7053 14.0003 18.7272 14.0003 18.752V18.752C14.0003 19.9935 12.9939 21 11.7524 21H10.0003V18.7101C8.94923 18.3973 8.00161 17.8443 7.22112 17.1146C7.20295 17.0977 7.17581 17.0944 7.15426 17.1069V17.1069C6.0783 17.7281 4.70246 17.3594 4.08126 16.2835L3.20605 14.7676L5.18933 13.6225C5.06574 13.1018 5.00032 12.5585 5.00032 12C5.00032 11.4558 5.06243 10.9261 5.17993 10.4176C5.18553 10.3934 5.17474 10.3683 5.15323 10.3559V10.3559C4.07783 9.735 3.70938 8.3599 4.33026 7.28451L5.20606 5.76758L7.19106 6.91362C7.96733 6.17939 8.9116 5.62093 9.96017 5.30196C9.98396 5.29473 10.0003 5.27283 10.0003 5.24797V5.24797Z" stroke="black" stroke-width="2"/>
<path d="M12 15C13.6569 15 15 13.6569 15 12C15 10.3431 13.6569 9 12 9C10.3431 9 9 10.3431 9 12C9 13.6569 10.3431 15 12 15Z" stroke="black" stroke-width="2"/>
</svg>
