<svg width="152" height="24" viewBox="0 0 152 24" fill="none" xmlns="http://www.w3.org/2000/svg">
<path d="M21 24H0V9C0 4.02944 4.02944 0 9 0H21V24Z" fill="white"/>
<path d="M32.122 18.76C29.158 18.76 27.208 17.122 27 14.418H28.638C28.82 16.264 30.042 17.252 32.122 17.252C33.942 17.252 35.138 16.212 35.138 15.016C35.138 10.726 27.312 14.522 27.312 8.82804C27.312 6.64404 29.132 5.24004 31.94 5.24004C34.722 5.24004 36.62 6.80004 36.776 9.16604H35.138C34.93 7.32004 33.084 6.74804 31.836 6.74804C30.146 6.74804 29.028 7.58004 29.028 8.82804C29.028 12.624 36.854 8.98404 36.854 15.016C36.854 17.304 34.956 18.76 32.122 18.76Z" fill="white"/>
<path d="M39.0339 1.15804H40.6719V5.44804H44.8319V6.95604H40.6719V14.626C40.6719 16.134 41.5299 17.044 42.8559 17.044H44.8319V18.552H42.8819C40.5159 18.552 39.0339 17.044 39.0339 14.626V6.95604H36.2259V5.44804H39.0339V1.15804Z" fill="white"/>
<path d="M52.0914 6.95604H50.3754C47.4894 6.95604 46.7354 9.60804 46.7354 12.962V18.552H45.0974V5.44804H46.7354V8.23004C47.2554 6.41004 48.3474 5.44804 50.3754 5.44804H52.0914V6.95604Z" fill="white"/>
<path d="M56.8194 5.24004C60.2514 5.24004 62.3054 7.19004 62.3054 10.102V18.552H60.6674V16.16C59.8874 17.746 58.0674 18.76 55.9614 18.76C53.1534 18.76 51.3594 17.226 51.3594 14.808C51.3594 12.312 53.4394 10.726 56.6894 10.726H59.8614C60.4334 10.726 60.6674 10.492 60.6674 10.102C60.6674 8.12604 59.2634 6.74804 56.8194 6.74804C54.7914 6.74804 53.0754 8.02204 52.9714 9.55604H51.3334C51.5934 7.03404 54.0894 5.24004 56.8194 5.24004ZM56.0914 17.252C58.9774 17.252 60.6674 15.51 60.6674 12.494V12.104H56.6894C54.5054 12.104 53.1014 13.144 53.1014 14.808C53.1014 16.29 54.2714 17.252 56.0914 17.252Z" fill="white"/>
<path d="M63.4843 18.552V5.44804H65.1223V8.17804C65.7983 6.20204 67.4623 5.24004 69.5423 5.24004C72.5063 5.24004 74.4303 7.34604 74.4303 10.596V18.552H72.7923V10.804C72.7923 8.36004 71.4143 6.74804 69.3083 6.74804C66.8643 6.74804 65.1223 8.72404 65.1223 11.506V18.552H63.4843Z" fill="white"/>
<path d="M86.1965 5.44804H87.8345V19.072C87.8345 21.854 85.8325 23.856 83.0245 23.856H76.9665V22.348H83.0245C84.8705 22.348 86.1965 20.97 86.1965 19.072V16.602C85.5985 17.876 83.7265 18.76 81.6465 18.76C77.4865 18.76 75.2765 15.744 75.2765 12C75.2765 8.25604 77.4865 5.24004 81.6465 5.24004C83.4665 5.24004 85.3645 6.20204 86.1965 7.55404V5.44804ZM81.6985 17.252C84.5325 17.252 86.3785 15.172 86.3785 12C86.3785 8.82804 84.5325 6.74804 81.6985 6.74804C78.8645 6.74804 77.0185 8.82804 77.0185 12C77.0185 15.172 78.8645 17.252 81.6985 17.252Z" fill="white"/>
<path d="M99.317 14.418H101.033C100.617 17.044 98.355 18.76 95.105 18.76C91.387 18.76 88.683 15.796 88.683 11.896C88.683 7.91804 91.179 5.24004 94.871 5.24004C98.459 5.24004 100.877 7.68404 100.877 11.298C100.877 11.532 100.851 11.974 100.825 12.156H90.347C90.451 15.094 92.479 17.252 95.105 17.252C97.419 17.252 98.875 16.212 99.317 14.418ZM94.871 6.74804C92.479 6.74804 90.867 8.20404 90.451 10.648H99.161C98.979 8.23004 97.367 6.74804 94.871 6.74804Z" fill="white"/>
<path d="M101.623 0.144043H103.599V2.79604H101.623V0.144043ZM101.805 18.552V5.44804H103.443V18.552H101.805Z" fill="white"/>
<path d="M110.492 18.76C106.332 18.76 104.226 15.432 104.226 12C104.226 8.56804 106.332 5.24004 110.492 5.24004C113.274 5.24004 115.874 6.85204 116.316 9.73804H114.704C114.444 8.02204 112.65 6.74804 110.492 6.74804C107.372 6.74804 105.942 9.16604 105.942 12C105.942 14.834 107.398 17.252 110.492 17.252C112.65 17.252 114.184 16.212 114.704 14.496H116.264C115.796 17.122 113.794 18.76 110.492 18.76Z" fill="white"/>
<path d="M122.791 18.76C118.943 18.76 116.187 15.952 116.187 12C116.187 8.04804 118.943 5.24004 122.791 5.24004C126.639 5.24004 129.395 8.04804 129.395 12C129.395 15.952 126.639 18.76 122.791 18.76ZM122.791 17.252C125.703 17.252 127.679 15.068 127.679 12C127.679 8.93204 125.703 6.74804 122.791 6.74804C119.879 6.74804 117.903 8.93204 117.903 12C117.903 15.068 119.879 17.252 122.791 17.252Z" fill="white"/>
<path d="M130.172 18.552V5.44804H131.81V8.17804C132.486 6.20204 134.15 5.24004 136.23 5.24004C139.194 5.24004 141.118 7.34604 141.118 10.596V18.552H139.48V10.804C139.48 8.36004 138.102 6.74804 135.996 6.74804C133.552 6.74804 131.81 8.72404 131.81 11.506V18.552H130.172Z" fill="white"/>
<path d="M147.138 18.76C144.174 18.76 142.224 17.122 142.016 14.418H143.654C143.836 16.264 145.058 17.252 147.138 17.252C148.958 17.252 150.154 16.212 150.154 15.016C150.154 10.726 142.328 14.522 142.328 8.82804C142.328 6.64404 144.148 5.24004 146.956 5.24004C149.738 5.24004 151.636 6.80004 151.792 9.16604H150.154C149.946 7.32004 148.1 6.74804 146.852 6.74804C145.162 6.74804 144.044 7.58004 144.044 8.82804C144.044 12.624 151.87 8.98404 151.87 15.016C151.87 17.304 149.972 18.76 147.138 18.76Z" fill="white"/>
</svg>
