<svg width="152" height="24" viewBox="0 0 152 24" fill="none" xmlns="http://www.w3.org/2000/svg">
<path d="M21 24H0V9C0 4.02944 4.02944 0 9 0H21V24Z" fill="black"/>
<path d="M32.122 18.76C29.158 18.76 27.208 17.122 27 14.418H28.638C28.82 16.264 30.042 17.252 32.122 17.252C33.942 17.252 35.138 16.212 35.138 15.016C35.138 10.726 27.312 14.522 27.312 8.828C27.312 6.644 29.132 5.24 31.94 5.24C34.722 5.24 36.62 6.8 36.776 9.166H35.138C34.93 7.32 33.084 6.748 31.836 6.748C30.146 6.748 29.028 7.58 29.028 8.828C29.028 12.624 36.854 8.984 36.854 15.016C36.854 17.304 34.956 18.76 32.122 18.76Z" fill="black"/>
<path d="M39.0339 1.158H40.6719V5.448H44.8319V6.956H40.6719V14.626C40.6719 16.134 41.5299 17.044 42.8559 17.044H44.8319V18.552H42.8819C40.5159 18.552 39.0339 17.044 39.0339 14.626V6.956H36.2259V5.448H39.0339V1.158Z" fill="black"/>
<path d="M52.0914 6.956H50.3754C47.4894 6.956 46.7354 9.608 46.7354 12.962V18.552H45.0974V5.448H46.7354V8.23C47.2554 6.41 48.3474 5.448 50.3754 5.448H52.0914V6.956Z" fill="black"/>
<path d="M56.8194 5.24C60.2514 5.24 62.3054 7.19 62.3054 10.102V18.552H60.6674V16.16C59.8874 17.746 58.0674 18.76 55.9614 18.76C53.1534 18.76 51.3594 17.226 51.3594 14.808C51.3594 12.312 53.4394 10.726 56.6894 10.726H59.8614C60.4334 10.726 60.6674 10.492 60.6674 10.102C60.6674 8.126 59.2634 6.748 56.8194 6.748C54.7914 6.748 53.0754 8.022 52.9714 9.556H51.3334C51.5934 7.034 54.0894 5.24 56.8194 5.24ZM56.0914 17.252C58.9774 17.252 60.6674 15.51 60.6674 12.494V12.104H56.6894C54.5054 12.104 53.1014 13.144 53.1014 14.808C53.1014 16.29 54.2714 17.252 56.0914 17.252Z" fill="black"/>
<path d="M63.4843 18.552V5.448H65.1223V8.178C65.7983 6.202 67.4623 5.24 69.5423 5.24C72.5063 5.24 74.4303 7.346 74.4303 10.596V18.552H72.7923V10.804C72.7923 8.36 71.4143 6.748 69.3083 6.748C66.8643 6.748 65.1223 8.724 65.1223 11.506V18.552H63.4843Z" fill="black"/>
<path d="M86.1965 5.448H87.8345V19.072C87.8345 21.854 85.8325 23.856 83.0245 23.856H76.9665V22.348H83.0245C84.8705 22.348 86.1965 20.97 86.1965 19.072V16.602C85.5985 17.876 83.7265 18.76 81.6465 18.76C77.4865 18.76 75.2765 15.744 75.2765 12C75.2765 8.256 77.4865 5.24 81.6465 5.24C83.4665 5.24 85.3645 6.202 86.1965 7.554V5.448ZM81.6985 17.252C84.5325 17.252 86.3785 15.172 86.3785 12C86.3785 8.828 84.5325 6.748 81.6985 6.748C78.8645 6.748 77.0185 8.828 77.0185 12C77.0185 15.172 78.8645 17.252 81.6985 17.252Z" fill="black"/>
<path d="M99.317 14.418H101.033C100.617 17.044 98.355 18.76 95.105 18.76C91.387 18.76 88.683 15.796 88.683 11.896C88.683 7.918 91.179 5.24 94.871 5.24C98.459 5.24 100.877 7.684 100.877 11.298C100.877 11.532 100.851 11.974 100.825 12.156H90.347C90.451 15.094 92.479 17.252 95.105 17.252C97.419 17.252 98.875 16.212 99.317 14.418ZM94.871 6.748C92.479 6.748 90.867 8.204 90.451 10.648H99.161C98.979 8.23 97.367 6.748 94.871 6.748Z" fill="black"/>
<path d="M101.623 0.143997H103.599V2.796H101.623V0.143997ZM101.805 18.552V5.448H103.443V18.552H101.805Z" fill="black"/>
<path d="M110.492 18.76C106.332 18.76 104.226 15.432 104.226 12C104.226 8.568 106.332 5.24 110.492 5.24C113.274 5.24 115.874 6.852 116.316 9.738H114.704C114.444 8.022 112.65 6.748 110.492 6.748C107.372 6.748 105.942 9.166 105.942 12C105.942 14.834 107.398 17.252 110.492 17.252C112.65 17.252 114.184 16.212 114.704 14.496H116.264C115.796 17.122 113.794 18.76 110.492 18.76Z" fill="black"/>
<path d="M122.791 18.76C118.943 18.76 116.187 15.952 116.187 12C116.187 8.048 118.943 5.24 122.791 5.24C126.639 5.24 129.395 8.048 129.395 12C129.395 15.952 126.639 18.76 122.791 18.76ZM122.791 17.252C125.703 17.252 127.679 15.068 127.679 12C127.679 8.932 125.703 6.748 122.791 6.748C119.879 6.748 117.903 8.932 117.903 12C117.903 15.068 119.879 17.252 122.791 17.252Z" fill="black"/>
<path d="M130.172 18.552V5.448H131.81V8.178C132.486 6.202 134.15 5.24 136.23 5.24C139.194 5.24 141.118 7.346 141.118 10.596V18.552H139.48V10.804C139.48 8.36 138.102 6.748 135.996 6.748C133.552 6.748 131.81 8.724 131.81 11.506V18.552H130.172Z" fill="black"/>
<path d="M147.138 18.76C144.174 18.76 142.224 17.122 142.016 14.418H143.654C143.836 16.264 145.058 17.252 147.138 17.252C148.958 17.252 150.154 16.212 150.154 15.016C150.154 10.726 142.328 14.522 142.328 8.828C142.328 6.644 144.148 5.24 146.956 5.24C149.738 5.24 151.636 6.8 151.792 9.166H150.154C149.946 7.32 148.1 6.748 146.852 6.748C145.162 6.748 144.044 7.58 144.044 8.828C144.044 12.624 151.87 8.984 151.87 15.016C151.87 17.304 149.972 18.76 147.138 18.76Z" fill="black"/>
</svg>
