<svg width="24" height="24" viewBox="0 0 24 24" fill="none" xmlns="http://www.w3.org/2000/svg">
<rect x="5" y="5" width="14" height="14" rx="3" stroke="#242E49" stroke-width="2"/>
<path d="M22 8L19 8" stroke="#242E49" stroke-width="2"/>
<path d="M22 16L19 16" stroke="#242E49" stroke-width="2"/>
<path d="M5 8L2 8" stroke="#242E49" stroke-width="2"/>
<path d="M5 16L2 16" stroke="#242E49" stroke-width="2"/>
<path d="M5 12L2 12" stroke="#242E49" stroke-width="2"/>
<path d="M22 12L19 12" stroke="#242E49" stroke-width="2"/>
<path d="M8 2L8 5" stroke="#242E49" stroke-width="2"/>
<path d="M16 2L16 5" stroke="#242E49" stroke-width="2"/>
<path d="M12 19L12 22" stroke="#242E49" stroke-width="2"/>
<path d="M12 2L12 5" stroke="#242E49" stroke-width="2"/>
<path d="M8 19L8 22" stroke="#242E49" stroke-width="2"/>
<path d="M16 19L16 22" stroke="#242E49" stroke-width="2"/>
<path d="M10 11.5V12.5C10 13.3284 10.6716 14 11.5 14H12.5C13.3284 14 14 13.3284 14 12.5V11.5C14 10.6716 13.3284 10 12.5 10H11.5C10.6716 10 10 10.6716 10 11.5Z" stroke="#242E49" stroke-width="2"/>
</svg>
