<svg width="24" height="24" viewBox="0 0 24 24" fill="none" xmlns="http://www.w3.org/2000/svg">
<path d="M12 14C14.2091 14 16 15.7909 16 18V18C16 20.2091 14.2091 22 12 22V22C9.79086 22 8 20.2091 8 18V18C8 15.7909 9.79086 14 12 14V14Z" fill="black"/>
<path d="M12 2C14.2091 2 16 3.79086 16 6V6C16 8.20914 14.2091 10 12 10V10C9.79086 10 8 8.20914 8 6V6C8 3.79086 9.79086 2 12 2V2Z" fill="black"/>
<path d="M6 8C8.20914 8 10 9.79086 10 12V12C10 14.2091 8.20914 16 6 16V16C3.79086 16 2 14.2091 2 12V12C2 9.79086 3.79086 8 6 8V8Z" fill="black"/>
<path d="M18 8C20.2091 8 22 9.79086 22 12V12C22 14.2091 20.2091 16 18 16V16C15.7909 16 14 14.2091 14 12V12C14 9.79086 15.7909 8 18 8V8Z" fill="black"/>
</svg>
