<svg width="1002" height="1722" viewBox="0 0 1002 1722" fill="none" xmlns="http://www.w3.org/2000/svg">
<path d="M861 781H721V881C721 914.137 747.863 941 781 941H861V781Z" stroke="#393939"/>
<path d="M701 481H561V381C561 347.863 587.863 321 621 321H701V481Z" stroke="#393939"/>
<path d="M701 321H841V221C841 187.863 814.137 161 781 161H701V321Z" stroke="#393939"/>
<path d="M421 321H281V421C281 454.137 307.863 481 341 481H421V321Z" stroke="#393939"/>
<path d="M861 1721H1001V1621C1001 1587.86 974.137 1561 941 1561H861V1721Z" stroke="#393939"/>
<path d="M861 1101H1001V1001C1001 967.863 974.137 941 941 941H861V1101Z" stroke="#393939"/>
<path d="M141 1421H281V1521C281 1554.14 254.137 1581 221 1581H141V1421Z" stroke="#393939"/>
<path d="M721 1561H861V1461C861 1427.86 834.137 1401 801 1401H721V1561Z" stroke="#393939"/>
<path d="M561 481H421V581C421 614.137 447.863 641 481 641H561V481Z" stroke="#393939"/>
<path d="M281 1261H421V1361C421 1394.14 394.137 1421 361 1421H281V1261Z" stroke="#393939"/>
<path d="M421 1261H561V1161C561 1127.86 534.137 1101 501 1101H421V1261Z" stroke="#393939"/>
<path d="M561 941H421V841C421 807.863 447.863 781 481 781H561V941Z" stroke="#393939"/>
<path d="M721 1261L721 1401L621 1401C587.863 1401 561 1374.14 561 1341L561 1261L721 1261Z" stroke="#393939"/>
<path d="M561 781L561 641L661 641C694.137 641 721 667.863 721 701L721 781L561 781Z" stroke="#393939"/>
<path d="M141 1261H61C27.8629 1261 0.999996 1287.86 0.999996 1321V1361C0.999996 1394.14 27.8629 1421 61 1421H141V1261Z" stroke="#393939"/>
<path d="M421 1101H341C307.863 1101 281 1074.14 281 1041V1001C281 967.863 307.863 941 341 941H421V1101Z" stroke="#393939"/>
<path d="M701 161H621C587.863 161 561 134.137 561 101V61C561 27.8629 587.863 0.999996 621 0.999996H701V161Z" stroke="#393939"/>
<path d="M281 321H201C167.863 321 141 294.137 141 261V221C141 187.863 167.863 161 201 161H281V321Z" stroke="#393939"/>
</svg>
