<svg width="24" height="24" viewBox="0 0 24 24" fill="none" xmlns="http://www.w3.org/2000/svg">
<path d="M19 19V5H5V19H19Z" stroke="#31323A" stroke-width="2"/>
<path d="M22 9L19 9" stroke="#31323A" stroke-width="2"/>
<path d="M22 15L19 15" stroke="#31323A" stroke-width="2"/>
<path d="M5 9L2 9" stroke="#31323A" stroke-width="2"/>
<path d="M5 15L2 15" stroke="#31323A" stroke-width="2"/>
<path d="M5 12L2 12" stroke="#31323A" stroke-width="2"/>
<path d="M22 12L19 12" stroke="#31323A" stroke-width="2"/>
<path d="M9 2L9 5" stroke="#31323A" stroke-width="2"/>
<path d="M15 2L15 5" stroke="#31323A" stroke-width="2"/>
<path d="M12 19L12 22" stroke="#31323A" stroke-width="2"/>
<path d="M12 2L12 5" stroke="#31323A" stroke-width="2"/>
<path d="M9 19L9 22" stroke="#31323A" stroke-width="2"/>
<path d="M15 19L15 22" stroke="#31323A" stroke-width="2"/>
<path d="M10 10V14H14V10H10Z" stroke="#31323A" stroke-width="2"/>
</svg>
