<svg width="24" height="24" viewBox="0 0 24 24" fill="none" xmlns="http://www.w3.org/2000/svg">
<path d="M12 16.0002V19.0002" stroke="#4F3422" stroke-width="2" stroke-linejoin="round"/>
<path d="M7 16.0002H14C16.2091 16.0002 18 14.2093 18 12.0002V12.0002C18 9.79104 16.2091 8.00018 14 8.00018H11" stroke="#9BB168" stroke-width="2"/>
<rect x="7" y="4.00018" width="4" height="8" rx="2" stroke="#4F3422" stroke-width="2" stroke-linejoin="round"/>
<path d="M9 4.00018L9 2.00018" stroke="#4F3422" stroke-width="2" stroke-linejoin="round"/>
<path d="M9 14.0002L9 12.0002" stroke="#4F3422" stroke-width="2" stroke-linejoin="round"/>
<path d="M10 21.0002C10 20.4698 10.2107 19.961 10.5858 19.586C10.9609 19.2109 11.4696 19.0002 12 19.0002C12.5304 19.0002 13.0391 19.2109 13.4142 19.586C13.7893 19.961 14 20.4697 14 21.0002" stroke="#4F3422" stroke-width="2" stroke-linejoin="round"/>
<path d="M14 21.0002C14 20.4698 14.2107 19.961 14.5858 19.586C14.9609 19.2109 15.4696 19.0002 16 19.0002C16.5304 19.0002 17.0391 19.2109 17.4142 19.586C17.7893 19.961 18 20.4697 18 21.0002" stroke="#4F3422" stroke-width="2" stroke-linejoin="round"/>
<path d="M6 21.0002C6 20.4698 6.21071 19.961 6.58579 19.586C6.96086 19.2109 7.46957 19.0002 8 19.0002C8.53043 19.0002 9.03914 19.2109 9.41421 19.586C9.78929 19.961 10 20.4697 10 21.0002" stroke="#4F3422" stroke-width="2" stroke-linejoin="round"/>
</svg>
