<svg width="24" height="24" viewBox="0 0 24 24" fill="none" xmlns="http://www.w3.org/2000/svg">
<path d="M15 7.00018C15 7.79583 14.6839 8.5589 14.1213 9.1215C13.5587 9.68411 12.7956 10.0002 12 10.0002C11.2043 10.0002 10.4413 9.68411 9.87868 9.1215C9.31607 8.55889 9 7.79583 9 7.00018" stroke="#9BB168" stroke-width="2" stroke-linejoin="round"/>
<path d="M10 19.0002H14C17.3137 19.0002 20 16.3139 20 13.0002C20 9.68647 17.3137 7.00018 14 7.00018H10C6.68629 7.00018 4 9.68647 4 13.0002C4 16.3139 6.68629 19.0002 10 19.0002Z" stroke="#4F3422" stroke-width="2" stroke-linejoin="round"/>
<path d="M20 13.0002H22" stroke="#4F3422" stroke-width="2" stroke-linejoin="round"/>
<path d="M2 13.0002L4 13.0002" stroke="#4F3422" stroke-width="2" stroke-linejoin="round"/>
<circle cx="9" cy="13.0002" r="1" fill="#4F3422"/>
<circle cx="15" cy="13.0002" r="1" fill="#4F3422"/>
</svg>
