<svg width="24" height="24" viewBox="0 0 24 24" fill="none" xmlns="http://www.w3.org/2000/svg">
<path d="M8 14.0002C8 13.4749 8.10346 12.9548 8.30448 12.4694C8.5055 11.9841 8.80014 11.5432 9.17157 11.1718C9.54301 10.8003 9.98396 10.5057 10.4693 10.3047C10.9546 10.1036 11.4747 10.0002 12 10.0002C12.5253 10.0002 13.0454 10.1036 13.5307 10.3047C14.016 10.5057 14.457 10.8003 14.8284 11.1718C15.1999 11.5432 15.4945 11.9841 15.6955 12.4695C15.8965 12.9548 16 13.4749 16 14.0002" stroke="#9BB168" stroke-width="2" stroke-linejoin="round"/>
<path d="M12 22.0002L12 18.0002" stroke="#4F3422" stroke-width="2" stroke-linejoin="round"/>
<path d="M8 7.00464L8 14.0002C8 16.2093 9.79086 18.0002 12 18.0002C14.2091 18.0002 16 16.2093 16 14.0002L16 7.00464C16 7.00218 15.998 7.00018 15.9955 7.00018L8.00446 7.00018C8.002 7.00018 8 7.00218 8 7.00464Z" stroke="#4F3422" stroke-width="2" stroke-linejoin="round"/>
<path d="M19 7.00018L5 7.00018" stroke="#4F3422" stroke-width="2" stroke-linejoin="round"/>
<path d="M12 6.00018C12 5.20453 12.3161 4.44147 12.8787 3.87886C13.4413 3.31625 14.2044 3.00018 15 3.00018" stroke="#4F3422" stroke-width="2" stroke-linejoin="round"/>
<path d="M12 6.00018C12 5.20453 11.6839 4.44147 11.1213 3.87886C10.5587 3.31625 9.79565 3.00018 9 3.00018" stroke="#4F3422" stroke-width="2" stroke-linejoin="round"/>
</svg>
