<svg width="24" height="24" viewBox="0 0 24 24" fill="none" xmlns="http://www.w3.org/2000/svg">
<path d="M12 21.0002V13.0002V13.0002C13.6569 13.0002 15 11.657 15 10.0002V10.0002" stroke="#9BB168" stroke-width="2" stroke-linejoin="round"/>
<path d="M12 21.0002V13.0002V13.0002C10.3431 13.0002 9 11.657 9 10.0002V10.0002" stroke="#9BB168" stroke-width="2" stroke-linejoin="round"/>
<path d="M15 16.3266L14.5709 15.4233C14.2222 15.5889 14 15.9405 14 16.3266H15ZM9 16.3266H10C10 15.9405 9.77779 15.5889 9.42909 15.4233L9 16.3266ZM18 10.0002C18 12.3922 16.6003 14.4592 14.5709 15.4233L15.4291 17.2298C18.1296 15.947 20 13.193 20 10.0002H18ZM12 4.00018C15.3137 4.00018 18 6.68647 18 10.0002H20C20 5.58191 16.4183 2.00018 12 2.00018V4.00018ZM6 10.0002C6 6.68647 8.68629 4.00018 12 4.00018V2.00018C7.58172 2.00018 4 5.58191 4 10.0002H6ZM9.42909 15.4233C7.39967 14.4592 6 12.3922 6 10.0002H4C4 13.193 5.87043 15.947 8.57091 17.2298L9.42909 15.4233ZM10 17.0002V16.3266H8V17.0002H10ZM12 19.0002C10.8954 19.0002 10 18.1048 10 17.0002H8C8 19.2093 9.79086 21.0002 12 21.0002V19.0002ZM14 17.0002C14 18.1048 13.1046 19.0002 12 19.0002V21.0002C14.2091 21.0002 16 19.2093 16 17.0002H14ZM14 16.3266V17.0002H16V16.3266H14Z" fill="#4F3422"/>
<path d="M12 20.0002L12 22.0002" stroke="#4F3422" stroke-width="2" stroke-linejoin="round"/>
</svg>
