<svg width="24" height="24" viewBox="0 0 24 24" fill="none" xmlns="http://www.w3.org/2000/svg">
<path d="M15 14.1975L14.4993 13.3319C14.1903 13.5106 14 13.8405 14 14.1975H15ZM9 14.1975H10C10 13.8405 9.80972 13.5106 9.50073 13.3319L9 14.1975ZM17 9.00018C17 10.8496 15.9964 12.4659 14.4993 13.3319L15.5007 15.0631C17.5904 13.8543 19 11.5924 19 9.00018H17ZM12 4.00018C14.7614 4.00018 17 6.23876 17 9.00018H19C19 5.13419 15.866 2.00018 12 2.00018V4.00018ZM7 9.00018C7 6.23876 9.23858 4.00018 12 4.00018V2.00018C8.13401 2.00018 5 5.13419 5 9.00018H7ZM9.50073 13.3319C8.00361 12.4659 7 10.8496 7 9.00018H5C5 11.5924 6.40958 13.8543 8.49927 15.0631L9.50073 13.3319ZM10 15.0002V14.1975H8V15.0002H10ZM12 17.0002C10.8954 17.0002 10 16.1048 10 15.0002H8C8 17.2093 9.79086 19.0002 12 19.0002V17.0002ZM14 15.0002C14 16.1048 13.1046 17.0002 12 17.0002V19.0002C14.2091 19.0002 16 17.2093 16 15.0002H14ZM14 14.1975V15.0002H16V14.1975H14Z" fill="#4F3422"/>
<path d="M15 21.0002H9" stroke="#9BB168" stroke-width="2" stroke-linejoin="round"/>
<path d="M14 9.00018C14 9.53062 13.7893 10.0393 13.4142 10.4144C13.0391 10.7895 12.5304 11.0002 12 11.0002C11.4696 11.0002 10.9609 10.7895 10.5858 10.4144C10.2107 10.0393 10 9.53062 10 9.00018" stroke="#9BB168" stroke-width="2" stroke-linejoin="round"/>
</svg>
