<svg width="24" height="24" viewBox="0 0 24 24" fill="none" xmlns="http://www.w3.org/2000/svg">
<path d="M7.5 4.20595C5.78422 5.19656 4.44326 6.72563 3.68508 8.55603C2.92691 10.3864 2.79389 12.4159 3.30667 14.3296C3.81944 16.2433 4.94935 17.9343 6.52115 19.1404C8.09294 20.3464 10.0188 21.0002 12 21.0002" stroke="#4F3422" stroke-width="2" stroke-linejoin="round"/>
<path d="M9.67063 3.30685C11.0041 2.94955 12.4019 2.9038 13.7558 3.17312C15.1098 3.44244 16.3836 4.01962 17.4789 4.86C18.5741 5.70039 19.4613 6.78146 20.0719 8.01959C20.6824 9.25771 21 10.6197 21 12.0002" stroke="#9BB168" stroke-width="2" stroke-linejoin="round"/>
<path d="M20.6933 14.3296C20.2844 15.8556 19.4811 17.247 18.364 18.3641C17.2469 19.4813 15.8554 20.2846 14.3294 20.6935" stroke="#4F3422" stroke-width="2" stroke-linejoin="round"/>
</svg>
