<svg width="24" height="24" viewBox="0 0 24 24" fill="none" xmlns="http://www.w3.org/2000/svg">
<path d="M15 21.0002L15 8.00018" stroke="#9BB168" stroke-width="2" stroke-linejoin="round"/>
<path d="M8 21.0002V13.0002" stroke="#9BB168" stroke-width="2" stroke-linejoin="round"/>
<path d="M21 21.0002H7C4.79086 21.0002 3 19.2093 3 17.0002L3 3.00018" stroke="#4F3422" stroke-width="2" stroke-linejoin="round"/>
<path d="M12 13.0002C12 12.4698 11.7893 11.961 11.4142 11.586C11.0391 11.2109 10.5304 11.0002 10 11.0002C9.46957 11.0002 8.96086 11.2109 8.58579 11.586C8.21071 11.961 8 12.4697 8 13.0002" stroke="#9BB168" stroke-width="2" stroke-linejoin="round"/>
<path d="M19 8.00018C19 7.46975 18.7893 6.96104 18.4142 6.58597C18.0391 6.2109 17.5304 6.00018 17 6.00018C16.4696 6.00018 15.9609 6.2109 15.5858 6.58597C15.2107 6.96104 15 7.46975 15 8.00018" stroke="#9BB168" stroke-width="2" stroke-linejoin="round"/>
</svg>
