<svg width="24" height="24" viewBox="0 0 24 24" fill="none" xmlns="http://www.w3.org/2000/svg">
<path d="M21 21.0002H7C4.79086 21.0002 3 19.2093 3 17.0002L3 3.00018" stroke="#4F3422" stroke-width="2" stroke-linejoin="round"/>
<path d="M11 14.0002C11 13.4698 10.7893 12.961 10.4142 12.586C10.0391 12.2109 9.53043 12.0002 9 12.0002C8.46957 12.0002 7.96086 12.2109 7.58579 12.586C7.21071 12.961 7 13.4697 7 14.0002" stroke="#9BB168" stroke-width="2" stroke-linejoin="round"/>
<path d="M11 7.00018C11 6.46975 10.7893 5.96104 10.4142 5.58597C10.0391 5.2109 9.53043 5.00018 9 5.00018C8.46957 5.00018 7.96086 5.2109 7.58579 5.58597C7.21071 5.96104 7 6.46975 7 7.00018" stroke="#9BB168" stroke-width="2" stroke-linejoin="round"/>
<path d="M18 18.0002C18 17.4698 17.7893 16.961 17.4142 16.586C17.0391 16.2109 16.5304 16.0002 16 16.0002C15.4696 16.0002 14.9609 16.2109 14.5858 16.586C14.2107 16.961 14 17.4697 14 18.0002" stroke="#9BB168" stroke-width="2" stroke-linejoin="round"/>
<path d="M18 11.0002C18 10.4698 17.7893 9.96104 17.4142 9.58597C17.0391 9.2109 16.5304 9.00018 16 9.00018C15.4696 9.00018 14.9609 9.2109 14.5858 9.58597C14.2107 9.96104 14 10.4697 14 11.0002" stroke="#9BB168" stroke-width="2" stroke-linejoin="round"/>
</svg>
