<svg width="24" height="24" viewBox="0 0 24 24" fill="none" xmlns="http://www.w3.org/2000/svg">
<path d="M3 16.0002H11" stroke="#9BB168" stroke-width="2" stroke-linejoin="round"/>
<path d="M11 12.0002C11.5304 12.0002 12.0391 12.2109 12.4142 12.586C12.7893 12.961 13 13.4697 13 14.0002C13 14.5306 12.7893 15.0393 12.4142 15.4144C12.0391 15.7895 11.5304 16.0002 11 16.0002" stroke="#9BB168" stroke-width="2" stroke-linejoin="round"/>
<path d="M3 9.00018H16" stroke="#9BB168" stroke-width="2" stroke-linejoin="round"/>
<path d="M16 5.00018C16.5304 5.00018 17.0391 5.2109 17.4142 5.58597C17.7893 5.96104 18 6.46975 18 7.00018C18 7.53062 17.7893 8.03932 17.4142 8.4144C17.0391 8.78947 16.5304 9.00018 16 9.00018" stroke="#9BB168" stroke-width="2" stroke-linejoin="round"/>
<path d="M21 21.0002H7C4.79086 21.0002 3 19.2093 3 17.0002L3 3.00018" stroke="#4F3422" stroke-width="2" stroke-linejoin="round"/>
</svg>
