<svg width="24" height="24" viewBox="0 0 24 24" fill="none" xmlns="http://www.w3.org/2000/svg">
<path d="M11 11.5C11 11.2239 11.2239 11 11.5 11H12.5C12.7761 11 13 11.2239 13 11.5V12.5C13 12.7761 12.7761 13 12.5 13H11.5C11.2239 13 11 12.7761 11 12.5V11.5Z" fill="#242E49"/>
<path fill-rule="evenodd" clip-rule="evenodd" d="M9 4H11V2H13V4H15V2H17V4.12602C18.4056 4.4878 19.5122 5.59439 19.874 7L22 7V9L20 9V11H22V13H20V15H22V17H19.874C19.5122 18.4056 18.4056 19.5122 17 19.874V22H15V20H13V22H11V20H9V22H7V19.874C5.59439 19.5122 4.4878 18.4056 4.12602 17H2V15H4V13H2V11H4V9H2V7H4.12602C4.4878 5.59439 5.59439 4.4878 7 4.12602V2H9V4ZM11.5 9C10.1193 9 9 10.1193 9 11.5V12.5C9 13.8807 10.1193 15 11.5 15H12.5C13.8807 15 15 13.8807 15 12.5V11.5C15 10.1193 13.8807 9 12.5 9H11.5Z" fill="#242E49"/>
</svg>
