<svg width="24" height="24" viewBox="0 0 24 24" fill="none" xmlns="http://www.w3.org/2000/svg">
<path fill-rule="evenodd" clip-rule="evenodd" d="M4.5 5H19.5C20.3284 5 21 5.67157 21 6.5V9.5C21 10.3284 20.3284 11 19.5 11H4.5C3.67157 11 3 10.3284 3 9.5V6.5C3 5.67157 3.67157 5 4.5 5ZM17.5 7C17.2239 7 17 7.22386 17 7.5V8.5C17 8.77614 17.2239 9 17.5 9H18.5C18.7761 9 19 8.77614 19 8.5V7.5C19 7.22386 18.7761 7 18.5 7H17.5ZM14 7.5C14 7.22386 14.2239 7 14.5 7H15.5C15.7761 7 16 7.22386 16 7.5V8.5C16 8.77614 15.7761 9 15.5 9H14.5C14.2239 9 14 8.77614 14 8.5V7.5ZM4.5 13H19.5C20.3284 13 21 13.6716 21 14.5V17.5C21 18.3284 20.3284 19 19.5 19H4.5C3.67157 19 3 18.3284 3 17.5V14.5C3 13.6716 3.67157 13 4.5 13ZM17.5 15C17.2239 15 17 15.2239 17 15.5V16.5C17 16.7761 17.2239 17 17.5 17H18.5C18.7761 17 19 16.7761 19 16.5V15.5C19 15.2239 18.7761 15 18.5 15H17.5ZM14 15.5C14 15.2239 14.2239 15 14.5 15H15.5C15.7761 15 16 15.2239 16 15.5V16.5C16 16.7761 15.7761 17 15.5 17H14.5C14.2239 17 14 16.7761 14 16.5V15.5Z" fill="#242E49"/>
</svg>
