<svg width="24" height="24" viewBox="0 0 24 24" fill="none" xmlns="http://www.w3.org/2000/svg">
<path fill-rule="evenodd" clip-rule="evenodd" d="M6 3.99994C3.79086 3.99994 2 5.7908 2 7.99994V15.9999C2 18.2091 3.79086 19.9999 6 19.9999H18C20.2091 19.9999 22 18.2091 22 15.9999V10.4705C22 8.26139 20.2091 6.47053 18 6.47053H12.971C12.4901 6.47053 12.0252 6.2972 11.6616 5.98231L10.5002 4.97637C9.77309 4.34659 8.84337 3.99994 7.88143 3.99994H6ZM11 12V10H13V12H15V14H13V16H11V14H9V12H11Z" fill="#242E49"/>
</svg>
