<svg width="24" height="24" viewBox="0 0 24 24" fill="none" xmlns="http://www.w3.org/2000/svg">
<path fill-rule="evenodd" clip-rule="evenodd" d="M20 8.99994V1.99994H18V4L6 4V2H4V9C4 10.1947 4.52374 11.267 5.35414 12C4.52374 12.7329 4 13.8053 4 14.9999V21.9999H6V20L18 20V22H20V15C20 13.8053 19.4762 12.7329 18.6458 12C19.4762 11.267 20 10.1946 20 8.99994ZM7.98711 13C6.88847 13.0069 6 13.8997 6 14.9999L18 15C18 13.8954 17.1046 13 16 13H8C7.9957 13 7.9914 13 7.98711 13ZM18 17L6 17V18L18 18V17ZM7.98711 11C7.99141 10.9999 7.9957 10.9999 8 10.9999H16C17.1045 10.9999 18 10.1045 18 9L6 9C6 10.1003 6.88848 10.993 7.98711 11ZM6 7L18 7V6L6 6V7Z" fill="#242E49"/>
</svg>
