<svg width="24" height="24" viewBox="0 0 24 24" fill="none" xmlns="http://www.w3.org/2000/svg">
<path fill-rule="evenodd" clip-rule="evenodd" d="M7 3C4.79086 3 3 4.79086 3 7V17C3 19.2091 4.79086 21 7 21H17C19.2091 21 21 19.2091 21 17V7C21 4.79086 19.2091 3 17 3H7ZM8 10.5V7H10V10.5C10 10.7761 10.2239 11 10.5 11H13.5C13.7761 11 14 10.7761 14 10.5V7H16V10.5C16 11.0628 15.814 11.5822 15.5002 12C15.814 12.4178 16 12.9372 16 13.5V17H14V13.5C14 13.2239 13.7761 13 13.5 13H10.5C10.2239 13 10 13.2239 10 13.5V17H8V13.5C8 12.9372 8.18597 12.4178 8.49982 12C8.18597 11.5822 8 11.0628 8 10.5Z" fill="#242E49"/>
</svg>
