<svg width="24" height="24" viewBox="0 0 24 24" fill="none" xmlns="http://www.w3.org/2000/svg">
<path fill-rule="evenodd" clip-rule="evenodd" d="M4 3.00049V5.00049C4 8.01252 5.66458 10.6358 8.12399 12.0005C5.66458 13.3652 4 15.9885 4 19.0005V21.0005H6V20.0005H18V21.0005H20V19.0005C20 15.9885 18.3354 13.3652 15.876 12.0005C18.3354 10.6358 20 8.01252 20 5.00049V3.00049H18V4.00049H6V3.00049H4ZM6.08296 6.00049C6.1407 6.34464 6.22773 6.67886 6.34141 7.00049H17.6586C17.7723 6.67886 17.8593 6.34464 17.917 6.00049H6.08296ZM16.4722 9.00049C15.3736 10.228 13.777 11.0005 12 11.0005C10.223 11.0005 8.62643 10.228 7.52779 9.00049H16.4722ZM7.52779 15.0005C8.62643 13.773 10.223 13.0005 12 13.0005C13.777 13.0005 15.3736 13.773 16.4722 15.0005H7.52779ZM6.08296 18.0005C6.1407 17.6563 6.22773 17.3221 6.34141 17.0005H17.6586C17.7723 17.3221 17.8593 17.6563 17.917 18.0005H6.08296Z" fill="#4F3422"/>
</svg>
