<svg width="24" height="24" viewBox="0 0 24 24" fill="none" xmlns="http://www.w3.org/2000/svg">
<path d="M10 3.17119V2.00049H8V3.17119C6.83481 3.58303 6 4.69427 6 6.00049V10.0005C6 11.3067 6.83481 12.4179 8 12.8298V14.0005H10V12.8298C11.1652 12.4179 12 11.3067 12 10.0005V9.00049H14C15.6569 9.00049 17 10.3436 17 12.0005C17 13.6573 15.6569 15.0005 14 15.0005H7V17.0005H11V18.1721C10.6337 18.3016 10.2935 18.5019 10 18.7644C9.45148 18.2738 8.73983 18.0005 8 18.0005C7.20435 18.0005 6.44129 18.3166 5.87868 18.8792C5.31607 19.4418 5 20.2048 5 21.0005H7C7 20.7353 7.10536 20.4809 7.29289 20.2934C7.48043 20.1058 7.73478 20.0005 8 20.0005C8.26522 20.0005 8.51957 20.1058 8.70711 20.2934C8.89464 20.4809 9 20.7353 9 21.0005H11C11 20.7353 11.1054 20.4809 11.2929 20.2934C11.4804 20.1058 11.7348 20.0005 12 20.0005C12.2652 20.0005 12.5196 20.1058 12.7071 20.2934C12.8946 20.4809 13 20.7353 13 21.0005H15C15 20.7353 15.1054 20.4809 15.2929 20.2934C15.4804 20.1058 15.7348 20.0005 16 20.0005C16.2652 20.0005 16.5196 20.1058 16.7071 20.2934C16.8946 20.4809 17 20.7353 17 21.0005H19C19 20.2048 18.6839 19.4418 18.1213 18.8792C17.5587 18.3166 16.7956 18.0005 16 18.0005C15.2602 18.0005 14.5485 18.2738 14 18.7644C13.7065 18.5019 13.3663 18.3016 13 18.1721V17.0005H14C16.7614 17.0005 19 14.7619 19 12.0005C19 9.23906 16.7614 7.00049 14 7.00049H12V6.00049C12 4.69427 11.1652 3.58303 10 3.17119Z" fill="#4F3422"/>
</svg>
