<svg width="24" height="24" viewBox="0 0 24 24" fill="none" xmlns="http://www.w3.org/2000/svg">
<path d="M7 3.17119V2.00049H9V3.17119C10.1652 3.58303 11 4.69427 11 6.00049V7.00049H12C14.7614 7.00049 17 9.23906 17 12.0005V16.1015C17.9534 16.2961 18.8372 16.7666 19.5355 17.465C20.4732 18.4026 21 19.6744 21 21.0005V22.0005H19V21.0005C19 20.2048 18.6839 19.4418 18.1213 18.8792C17.5587 18.3166 16.7956 18.0005 16 18.0005C15.2044 18.0005 14.4413 18.3166 13.8787 18.8792C13.3161 19.4418 13 20.2048 13 21.0005C13 21.5528 12.5523 22.0005 12 22.0005H4V20.0005H11.101C11.2956 19.047 11.7661 18.1633 12.4645 17.465C13.1628 16.7666 14.0466 16.2961 15 16.1015V12.0005C15 10.3436 13.6569 9.00049 12 9.00049H11V10.0005C11 11.3067 10.1652 12.4179 9 12.8298V14.0005H7V12.8298C5.83481 12.4179 5 11.3067 5 10.0005V6.00049C5 4.69427 5.83481 3.58303 7 3.17119Z" fill="#4F3422"/>
</svg>
