<svg width="24" height="24" viewBox="0 0 24 24" fill="none" xmlns="http://www.w3.org/2000/svg">
<path d="M11 7.00049C11 4.79135 12.7909 3.00049 15 3.00049H18C20.2091 3.00049 22 4.79135 22 7.00049C22 9.20963 20.2091 11.0005 18 11.0005H14.4142L14.1213 11.2934C12.9695 12.4452 11 11.6294 11 10.0005V7.00049Z" fill="#4F3422"/>
<path d="M10 9.00049C7.23858 9.00049 5 11.2391 5 14.0005C5 16.7619 7.23858 19.0005 10 19.0005H14C16.7614 19.0005 19 16.7619 19 14.0005V12.0005H21V13.0005H22V15.0005H20.9291C20.4439 18.3928 17.5265 21.0005 14 21.0005H10C6.47353 21.0005 3.55612 18.3928 3.07089 15.0005H2V13.0005H3.07089C3.55612 9.60819 6.47353 7.00049 10 7.00049V9.00049Z" fill="#4F3422"/>
<path d="M10 14.0005C10 14.5528 9.55228 15.0005 9 15.0005C8.44772 15.0005 8 14.5528 8 14.0005C8 13.4482 8.44772 13.0005 9 13.0005C9.55228 13.0005 10 13.4482 10 14.0005Z" fill="#4F3422"/>
<path d="M15 15.0005C15.5523 15.0005 16 14.5528 16 14.0005C16 13.4482 15.5523 13.0005 15 13.0005C14.4477 13.0005 14 13.4482 14 14.0005C14 14.5528 14.4477 15.0005 15 15.0005Z" fill="#4F3422"/>
</svg>
