<svg width="24" height="24" viewBox="0 0 24 24" fill="none" xmlns="http://www.w3.org/2000/svg">
<path d="M9 14.0005C9.55228 14.0005 10 13.5528 10 13.0005C10 12.4482 9.55228 12.0005 9 12.0005C8.44772 12.0005 8 12.4482 8 13.0005C8 13.5528 8.44772 14.0005 9 14.0005Z" fill="#4F3422"/>
<path d="M16 13.0005C16 13.5528 15.5523 14.0005 15 14.0005C14.4477 14.0005 14 13.5528 14 13.0005C14 12.4482 14.4477 12.0005 15 12.0005C15.5523 12.0005 16 12.4482 16 13.0005Z" fill="#4F3422"/>
<path fill-rule="evenodd" clip-rule="evenodd" d="M2 14.0005H3.07089C3.55612 17.3928 6.47353 20.0005 10 20.0005H14C17.5265 20.0005 20.4439 17.3928 20.9291 14.0005H22V12.0005H20.9291C20.4439 8.60819 17.5265 6.00049 14 6.00049H10C6.47353 6.00049 3.55612 8.60819 3.07089 12.0005H2V14.0005ZM8.22549 8.32453C6.34004 9.04044 5 10.864 5 13.0005C5 15.7619 7.23858 18.0005 10 18.0005H14C16.7614 18.0005 19 15.7619 19 13.0005C19 10.864 17.66 9.04044 15.7745 8.32452C15.5778 8.88533 15.2567 9.40068 14.8284 9.82892C14.0783 10.5791 13.0609 11.0005 12 11.0005C10.9391 11.0005 9.92172 10.5791 9.17157 9.82892C8.74333 9.40068 8.42222 8.88533 8.22549 8.32453Z" fill="#4F3422"/>
</svg>
