<svg width="24" height="24" viewBox="0 0 24 24" fill="none" xmlns="http://www.w3.org/2000/svg">
<path fill-rule="evenodd" clip-rule="evenodd" d="M13 6.00049C13 7.10506 13.8954 8.00049 15 8.00049V10.0005C13.8053 10.0005 12.7329 9.47673 12 8.64631C11.2671 9.47673 10.1947 10.0005 9 10.0005V8.00049C10.1046 8.00049 11 7.10506 11 6.00049V2.53562C10.4117 2.19528 9.72857 2.00049 9 2.00049C6.79086 2.00049 5 3.79135 5 6.00049V7.17119C6.16519 7.58303 7 8.69427 7 10.0005C7 10.5528 7.44772 11.0005 8 11.0005H9V13.0005H8C6.34315 13.0005 5 11.6573 5 10.0005C5 9.4482 4.55228 9.00049 4 9.00049H3.35418C2.52375 9.73343 2 10.8058 2 12.0005C2 12.7291 2.19479 13.4121 2.53513 14.0005H6C8.20914 14.0005 10 15.7913 10 18.0005H8C8 16.8959 7.10457 16.0005 6 16.0005H5V18.0005C5 20.2096 6.79086 22.0005 9 22.0005C10.1947 22.0005 11.2671 21.4767 12 20.6463C12.7329 21.4767 13.8053 22.0005 15 22.0005C17.2091 22.0005 19 20.2096 19 18.0005V16.0005H18C16.8954 16.0005 16 16.8959 16 18.0005H14C14 15.7913 15.7909 14.0005 18 14.0005H21.4649C21.8052 13.4121 22 12.7291 22 12.0005C22 10.8058 21.4762 9.73343 20.6458 9.00049H20C19.4477 9.00049 19 9.4482 19 10.0005C19 11.6573 17.6569 13.0005 16 13.0005H15V11.0005H16C16.5523 11.0005 17 10.5528 17 10.0005C17 8.69427 17.8348 7.58303 19 7.17119V6.00049C19 3.79135 17.2091 2.00049 15 2.00049C14.2714 2.00049 13.5883 2.19528 13 2.53562V6.00049Z" fill="#4F3422"/>
</svg>
