<svg width="24" height="24" viewBox="0 0 24 24" fill="none" xmlns="http://www.w3.org/2000/svg">
<path fill-rule="evenodd" clip-rule="evenodd" d="M13.5858 4.58627C13.9609 4.2112 14.4696 4.00049 15 4.00049V2.00049C13.9391 2.00049 12.9217 2.42192 12.1716 3.17206C12.1123 3.23132 12.0551 3.29224 12 3.35473C11.9449 3.29224 11.8877 3.23132 11.8284 3.17206C11.0783 2.42192 10.0609 2.00049 9 2.00049V4.00049C9.53043 4.00049 10.0391 4.2112 10.4142 4.58627C10.7893 4.96135 11 5.47006 11 6.00049L5 6.00049V8.00049H7L7 13.9978C7 13.9987 7 13.9996 7 14.0005C7 16.4194 8.71776 18.4372 11 18.9005V22.0005H13V18.9005C15.2822 18.4372 17 16.4194 17 14.0005C17 13.9995 17 13.9984 17 13.9974V8.00049H19V6.00049L13 6.00049C13 5.47006 13.2107 4.96135 13.5858 4.58627ZM15 10.0005V8.00049L9 8.00049L9 10.0005C9.3341 9.74991 9.69903 9.54162 10.0866 9.38109C10.6932 9.12982 11.3434 9.00049 12 9.00049C12.6566 9.00049 13.3068 9.12982 13.9134 9.38109C14.301 9.54162 14.6659 9.74991 15 10.0005Z" fill="#4F3422"/>
</svg>
