<svg width="24" height="24" viewBox="0 0 24 24" fill="none" xmlns="http://www.w3.org/2000/svg">
<path d="M12 11.0005C11.4477 11.0005 11 11.4482 11 12.0005C11 12.5528 11.4477 13.0005 12 13.0005C12.5523 13.0005 13 12.5528 13 12.0005C13 11.4482 12.5523 11.0005 12 11.0005Z" fill="#4F3422"/>
<path fill-rule="evenodd" clip-rule="evenodd" d="M10 4.00049H11V2.00049H13V4.00049H14V2.00049H16V4.10051C17.9591 4.49819 19.5023 6.04136 19.9 8.00049L22 8.00049V10.0005H20V11.0005H22V13.0005H20V14.0005H22V16.0005H19.9C19.5023 17.9596 17.9591 19.5028 16 19.9005V22.0005H14V20.0005H13V22.0005H11V20.0005H10V22.0005H8V19.9005C6.04087 19.5028 4.4977 17.9596 4.10002 16.0005H2V14.0005H4V13.0005H2V11.0005H4V10.0005H2V8.00049H4.10002C4.4977 6.04136 6.04087 4.49819 8 4.10051V2.00049H10V4.00049ZM9 12.0005C9 10.3436 10.3431 9.00049 12 9.00049C13.6569 9.00049 15 10.3436 15 12.0005C15 13.6573 13.6569 15.0005 12 15.0005C10.3431 15.0005 9 13.6573 9 12.0005Z" fill="#4F3422"/>
</svg>
