<svg width="24" height="24" viewBox="0 0 24 24" fill="none" xmlns="http://www.w3.org/2000/svg">
<path fill-rule="evenodd" clip-rule="evenodd" d="M12 2.00049C7.58172 2.00049 4 5.58221 4 10.0005C4 12.963 5.61038 15.5478 8 16.93V17.0005C8 18.8643 9.27477 20.4304 11 20.8745V22.0005H13V20.8745C14.7252 20.4304 16 18.8643 16 17.0005V16.93C18.3896 15.5478 20 12.963 20 10.0005C20 5.58221 16.4183 2.00049 12 2.00049ZM13 17.0005V13.8745C14.7252 13.4304 16 11.8643 16 10.0005H14C14 11.1051 13.1046 12.0005 12 12.0005C10.8954 12.0005 10 11.1051 10 10.0005H8C8 11.8643 9.27477 13.4304 11 13.8745V17.0005H13Z" fill="#4F3422"/>
</svg>
