<svg width="24" height="24" viewBox="0 0 24 24" fill="none" xmlns="http://www.w3.org/2000/svg">
<path fill-rule="evenodd" clip-rule="evenodd" d="M12 2.00049C8.13401 2.00049 5 5.1345 5 9.00049C5 11.3805 6.18818 13.4819 8 14.7457V15.0005C8 17.2096 9.79086 19.0005 12 19.0005C14.2091 19.0005 16 17.2096 16 15.0005V14.7457C17.8118 13.4819 19 11.3805 19 9.00049C19 5.1345 15.866 2.00049 12 2.00049ZM12.7071 9.70759C12.8946 9.52006 13 9.26571 13 9.00049H15C15 9.79614 14.6839 10.5592 14.1213 11.1218C13.5587 11.6844 12.7956 12.0005 12 12.0005C11.2044 12.0005 10.4413 11.6844 9.87868 11.1218C9.31607 10.5592 9 9.79614 9 9.00049L11 9.00049C11 9.26571 11.1054 9.52006 11.2929 9.70759C11.4804 9.89513 11.7348 10.0005 12 10.0005C12.2652 10.0005 12.5196 9.89513 12.7071 9.70759Z" fill="#4F3422"/>
<path d="M15 22.0005V20.0005H9V22.0005H15Z" fill="#4F3422"/>
</svg>
