<svg width="24" height="24" viewBox="0 0 24 24" fill="none" xmlns="http://www.w3.org/2000/svg">
<path d="M13.5607 4.15421C12.3572 3.91481 11.1147 3.95548 9.92945 4.27308L9.41181 2.34123C10.8934 1.94423 12.4465 1.89339 13.9509 2.19264C15.4553 2.49188 16.8707 3.13319 18.0876 4.06696C19.3045 5.00072 20.2903 6.20191 20.9687 7.5776C21.6471 8.95329 22 10.4666 22 12.0005L20 12.0005C20 10.7734 19.7177 9.56273 19.175 8.46218C18.6323 7.36163 17.8436 6.40067 16.8701 5.65366C15.8966 4.90665 14.7642 4.3936 13.5607 4.15421Z" fill="#4F3422"/>
<path d="M2.76121 8.17365C3.60363 6.13988 5.09359 4.4409 7 3.34023L8 5.07228C6.47487 5.95282 5.2829 7.312 4.60897 8.93902C3.93503 10.566 3.8168 12.37 4.2726 14.071C4.7284 15.7721 5.73276 17.2752 7.12991 18.3473C8.52706 19.4194 10.2389 20.0005 12 20.0005L12 22.0005C9.79866 22.0005 7.65883 21.2741 5.91239 19.934C4.16595 18.5939 2.91049 16.715 2.34074 14.5887C1.771 12.4623 1.91879 10.2074 2.76121 8.17365Z" fill="#4F3422"/>
<path d="M19.7274 14.071C19.364 15.4275 18.6498 16.6644 17.6569 17.6573C16.6639 18.6503 15.427 19.3644 14.0706 19.7279L14.5882 21.6597C16.2837 21.2054 17.8298 20.3128 19.0711 19.0716C20.3123 17.8303 21.2049 16.2842 21.6593 14.5887L19.7274 14.071Z" fill="#4F3422"/>
</svg>
