<svg width="24" height="24" viewBox="0 0 24 24" fill="none" xmlns="http://www.w3.org/2000/svg">
<path d="M4 3.00049V17.0005C4 18.6573 5.34315 20.0005 7 20.0005V13.0005C7 12.2048 7.31607 11.4418 7.87868 10.8792C8.44129 10.3166 9.20435 10.0005 10 10.0005C10.7956 10.0005 11.5587 10.3166 12.1213 10.8792C12.6839 11.4418 13 12.2048 13 13.0005H11C11 12.7353 10.8946 12.4809 10.7071 12.2934C10.5196 12.1058 10.2652 12.0005 10 12.0005C9.73478 12.0005 9.48043 12.1058 9.29289 12.2934C9.10536 12.4809 9 12.7353 9 13.0005V20.0005H14L14 8.00049C14 7.20484 14.3161 6.44178 14.8787 5.87917C15.4413 5.31656 16.2044 5.00049 17 5.00049C17.7956 5.00049 18.5587 5.31656 19.1213 5.87917C19.6839 6.44178 20 7.20484 20 8.00049H18C18 7.73527 17.8946 7.48092 17.7071 7.29338C17.5196 7.10585 17.2652 7.00049 17 7.00049C16.7348 7.00049 16.4804 7.10584 16.2929 7.29338C16.1054 7.48092 16 7.73527 16 8.00049L16 20.0005H21V22.0005H7C4.23858 22.0005 2 19.7619 2 17.0005V3.00049H4Z" fill="#4F3422"/>
</svg>
