<svg width="24" height="24" viewBox="0 0 24 24" fill="none" xmlns="http://www.w3.org/2000/svg">
<path d="M4 3.00049V17.0005C4 18.6573 5.34315 20.0005 7 20.0005H21V22.0005H7C4.23858 22.0005 2 19.7619 2 17.0005V3.00049H4Z" fill="#4F3422"/>
<path d="M9.70711 13.2934C9.89464 13.4809 10 13.7353 10 14.0005H12C12 13.2048 11.6839 12.4418 11.1213 11.8792C10.5587 11.3166 9.79565 11.0005 9 11.0005C8.20435 11.0005 7.44129 11.3166 6.87868 11.8792C6.31607 12.4418 6 13.2048 6 14.0005H8C8 13.7353 8.10536 13.4809 8.29289 13.2934C8.48043 13.1058 8.73478 13.0005 9 13.0005C9.26522 13.0005 9.51957 13.1058 9.70711 13.2934Z" fill="#4F3422"/>
<path d="M10 7.00049C10 6.73527 9.89464 6.48092 9.70711 6.29338C9.51957 6.10585 9.26522 6.00049 9 6.00049C8.73478 6.00049 8.48043 6.10584 8.29289 6.29338C8.10536 6.48092 8 6.73527 8 7.00049L6 7.00049C6 6.20484 6.31607 5.44178 6.87868 4.87917C7.44129 4.31656 8.20435 4.00049 9 4.00049C9.79565 4.00049 10.5587 4.31656 11.1213 4.87917C11.6839 5.44178 12 6.20484 12 7.00049H10Z" fill="#4F3422"/>
<path d="M16.7071 17.2934C16.8946 17.4809 17 17.7353 17 18.0005H19C19 17.2048 18.6839 16.4418 18.1213 15.8792C17.5587 15.3166 16.7956 15.0005 16 15.0005C15.2044 15.0005 14.4413 15.3166 13.8787 15.8792C13.3161 16.4418 13 17.2048 13 18.0005H15C15 17.7353 15.1054 17.4809 15.2929 17.2934C15.4804 17.1058 15.7348 17.0005 16 17.0005C16.2652 17.0005 16.5196 17.1058 16.7071 17.2934Z" fill="#4F3422"/>
<path d="M17 11.0005C17 10.7353 16.8946 10.4809 16.7071 10.2934C16.5196 10.1058 16.2652 10.0005 16 10.0005C15.7348 10.0005 15.4804 10.1058 15.2929 10.2934C15.1054 10.4809 15 10.7353 15 11.0005L13 11.0005C13 10.2048 13.3161 9.44178 13.8787 8.87917C14.4413 8.31656 15.2044 8.00049 16 8.00049C16.7956 8.00049 17.5587 8.31656 18.1213 8.87917C18.6839 9.44178 19 10.2048 19 11.0005H17Z" fill="#4F3422"/>
</svg>
