<svg width="24" height="24" viewBox="0 0 24 24" fill="none" xmlns="http://www.w3.org/2000/svg">
<path d="M4 8.00049V3.00049H2V17.0005C2 19.7619 4.23858 22.0005 7 22.0005H21V20.0005H7C5.34315 20.0005 4 18.6573 4 17.0005H11C11.7956 17.0005 12.5587 16.6844 13.1213 16.1218C13.6839 15.5592 14 14.7961 14 14.0005C14 13.2048 13.6839 12.4418 13.1213 11.8792C12.5587 11.3166 11.7956 11.0005 11 11.0005V13.0005C11.2652 13.0005 11.5196 13.1058 11.7071 13.2934C11.8946 13.4809 12 13.7353 12 14.0005C12 14.2657 11.8946 14.5201 11.7071 14.7076C11.5196 14.8951 11.2652 15.0005 11 15.0005H4V10.0005H16C16.7956 10.0005 17.5587 9.68442 18.1213 9.12181C18.6839 8.5592 19 7.79614 19 7.00049C19 6.20484 18.6839 5.44178 18.1213 4.87917C17.5587 4.31656 16.7956 4.00049 16 4.00049V6.00049C16.2652 6.00049 16.5196 6.10585 16.7071 6.29338C16.8946 6.48092 17 6.73527 17 7.00049C17 7.2657 16.8946 7.52006 16.7071 7.70759C16.5196 7.89513 16.2652 8.00049 16 8.00049H4Z" fill="#4F3422"/>
</svg>
