<svg width="24" height="24" viewBox="0 0 24 24" fill="none" xmlns="http://www.w3.org/2000/svg">
<path d="M20 12V14V14C20 17.3137 17.3137 20 14 20H10C6.68629 20 4 17.3137 4 14V14V14C4 10.6863 6.68629 8 10 8V8" stroke="#4F3422" stroke-width="2" stroke-linejoin="round"/>
<path d="M12 7C12 5.34315 13.3431 4 15 4H18C19.6569 4 21 5.34315 21 7V7C21 8.65685 19.6569 10 18 10H14.4142C14.149 10 13.8946 10.1054 13.7071 10.2929L13.4142 10.5858C12.8923 11.1077 12 10.738 12 10V10V7V7Z" stroke="#4F3422" stroke-width="2" stroke-linejoin="round"/>
<circle cx="9" cy="14" r="1" fill="#4F3422"/>
<circle cx="15" cy="14" r="1" fill="#4F3422"/>
<path d="M20 14L22 14" stroke="#4F3422" stroke-width="2" stroke-linejoin="round"/>
<path d="M2 14L4 14" stroke="#4F3422" stroke-width="2" stroke-linejoin="round"/>
</svg>
