<svg width="24" height="24" viewBox="0 0 24 24" fill="none" xmlns="http://www.w3.org/2000/svg">
<path d="M6 9V6C6 4.34315 7.34315 3 9 3C10.6569 3 12 4.34315 12 6V18C12 19.6569 10.6569 21 9 21C7.34315 21 6 19.6569 6 18V15C4.34315 15 3 13.6569 3 12C3 10.3431 4.34315 9 6 9Z" stroke="#4F3422" stroke-width="2" stroke-linejoin="round"/>
<path d="M12 6V6C12 7.65685 10.6569 9 9 9V9" stroke="#4F3422" stroke-width="2" stroke-linejoin="round"/>
<path d="M6 15V15C7.65685 15 9 16.3431 9 18V18" stroke="#4F3422" stroke-width="2" stroke-linejoin="round"/>
<path d="M6 9V9C6 10.6569 7.34315 12 9 12V12" stroke="#4F3422" stroke-width="2" stroke-linejoin="round"/>
<path d="M18 9V6C18 4.34315 16.6569 3 15 3C13.3431 3 12 4.34315 12 6V18C12 19.6569 13.3431 21 15 21C16.6569 21 18 19.6569 18 18V15C19.6569 15 21 13.6569 21 12C21 10.3431 19.6569 9 18 9Z" stroke="#4F3422" stroke-width="2" stroke-linejoin="round"/>
<path d="M12 6V6C12 7.65685 13.3431 9 15 9V9" stroke="#4F3422" stroke-width="2" stroke-linejoin="round"/>
<path d="M18 15V15C16.3431 15 15 16.3431 15 18V18" stroke="#4F3422" stroke-width="2" stroke-linejoin="round"/>
<path d="M18 9V9C18 10.6569 16.6569 12 15 12V12" stroke="#4F3422" stroke-width="2" stroke-linejoin="round"/>
</svg>
