<svg width="24" height="24" viewBox="0 0 24 24" fill="none" xmlns="http://www.w3.org/2000/svg">
<path d="M12 22L12 18" stroke="#4F3422" stroke-width="2" stroke-linejoin="round"/>
<path d="M8 7.00446L8 14C8 16.2091 9.79086 18 12 18C14.2091 18 16 16.2091 16 14L16 7.00445C16 7.00199 15.998 7 15.9955 7L8.00446 7C8.002 7 8 7.00199 8 7.00446Z" stroke="#4F3422" stroke-width="2" stroke-linejoin="round"/>
<path d="M19 7L5 7" stroke="#4F3422" stroke-width="2" stroke-linejoin="round"/>
<path d="M12 6C12 5.20435 12.3161 4.44129 12.8787 3.87868C13.4413 3.31607 14.2044 3 15 3" stroke="#4F3422" stroke-width="2" stroke-linejoin="round"/>
<path d="M12 6C12 5.20435 11.6839 4.44129 11.1213 3.87868C10.5587 3.31607 9.79565 3 9 3" stroke="#4F3422" stroke-width="2" stroke-linejoin="round"/>
<path d="M8 14C8 13.4747 8.10346 12.9546 8.30448 12.4693C8.5055 11.984 8.80014 11.543 9.17157 11.1716C9.54301 10.8001 9.98396 10.5055 10.4693 10.3045C10.9546 10.1035 11.4747 10 12 10C12.5253 10 13.0454 10.1035 13.5307 10.3045C14.016 10.5055 14.457 10.8001 14.8284 11.1716C15.1999 11.543 15.4945 11.984 15.6955 12.4693C15.8965 12.9546 16 13.4747 16 14" stroke="#4F3422" stroke-width="2" stroke-linejoin="round"/>
</svg>
