<svg width="24" height="24" viewBox="0 0 24 24" fill="none" xmlns="http://www.w3.org/2000/svg">
<path d="M15 16.3264L14.5709 15.4231C14.2222 15.5888 14 15.9403 14 16.3264H15ZM9 16.3264H10C10 15.9403 9.77779 15.5888 9.42909 15.4231L9 16.3264ZM18 10C18 12.392 16.6003 14.459 14.5709 15.4231L15.4291 17.2296C18.1296 15.9468 20 13.1928 20 10H18ZM12 4C15.3137 4 18 6.68629 18 10H20C20 5.58172 16.4183 2 12 2V4ZM6 10C6 6.68629 8.68629 4 12 4V2C7.58172 2 4 5.58172 4 10H6ZM9.42909 15.4231C7.39967 14.459 6 12.392 6 10H4C4 13.1928 5.87043 15.9468 8.57091 17.2296L9.42909 15.4231ZM10 17V16.3264H8V17H10ZM12 19C10.8954 19 10 18.1046 10 17H8C8 19.2091 9.79086 21 12 21V19ZM14 17C14 18.1046 13.1046 19 12 19V21C14.2091 21 16 19.2091 16 17H14ZM14 16.3264V17H16V16.3264H14Z" fill="#4F3422"/>
<path d="M12 20L12 22" stroke="#4F3422" stroke-width="2" stroke-linejoin="round"/>
<path d="M12 21V13V13C13.6569 13 15 11.6569 15 10V10" stroke="#4F3422" stroke-width="2" stroke-linejoin="round"/>
<path d="M12 21V13V13C10.3431 13 9 11.6569 9 10V10" stroke="#4F3422" stroke-width="2" stroke-linejoin="round"/>
</svg>
