<svg width="24" height="24" viewBox="0 0 24 24" fill="none" xmlns="http://www.w3.org/2000/svg">
<path d="M15 14.1973L14.4993 13.3317C14.1903 13.5104 14 13.8403 14 14.1973H15ZM9 14.1973H10C10 13.8403 9.80972 13.5104 9.50073 13.3317L9 14.1973ZM17 9C17 10.8494 15.9964 12.4657 14.4993 13.3317L15.5007 15.0629C17.5904 13.8541 19 11.5922 19 9H17ZM12 4C14.7614 4 17 6.23858 17 9H19C19 5.13401 15.866 2 12 2V4ZM7 9C7 6.23858 9.23858 4 12 4V2C8.13401 2 5 5.13401 5 9H7ZM9.50073 13.3317C8.00361 12.4657 7 10.8494 7 9H5C5 11.5922 6.40958 13.8541 8.49927 15.0629L9.50073 13.3317ZM10 15V14.1973H8V15H10ZM12 17C10.8954 17 10 16.1046 10 15H8C8 17.2091 9.79086 19 12 19V17ZM14 15C14 16.1046 13.1046 17 12 17V19C14.2091 19 16 17.2091 16 15H14ZM14 14.1973V15H16V14.1973H14Z" fill="#4F3422"/>
<path d="M15 21H9" stroke="#4F3422" stroke-width="2" stroke-linejoin="round"/>
<path d="M14 9C14 9.53043 13.7893 10.0391 13.4142 10.4142C13.0391 10.7893 12.5304 11 12 11C11.4696 11 10.9609 10.7893 10.5858 10.4142C10.2107 10.0391 10 9.53043 10 9" stroke="#4F3422" stroke-width="2" stroke-linejoin="round"/>
</svg>
