<svg width="24" height="24" viewBox="0 0 24 24" fill="none" xmlns="http://www.w3.org/2000/svg">
<path d="M7.5 4.20577C5.78422 5.19637 4.44326 6.72545 3.68508 8.55585C2.92691 10.3862 2.79389 12.4157 3.30667 14.3294C3.81944 16.2431 4.94935 17.9341 6.52115 19.1402C8.09294 20.3463 10.0188 21 12 21" stroke="#4F3422" stroke-width="2" stroke-linejoin="round"/>
<path d="M9.67063 3.30667C11.0041 2.94937 12.4019 2.90361 13.7558 3.17293C15.1098 3.44225 16.3836 4.01943 17.4789 4.85982C18.5741 5.70021 19.4613 6.78128 20.0719 8.0194C20.6824 9.25753 21 10.6195 21 12" stroke="#4F3422" stroke-width="2" stroke-linejoin="round"/>
<path d="M20.6933 14.3294C20.2844 15.8554 19.4811 17.2469 18.364 18.364C17.2469 19.4811 15.8554 20.2844 14.3294 20.6933" stroke="#4F3422" stroke-width="2" stroke-linejoin="round"/>
</svg>
