<svg width="24" height="24" viewBox="0 0 24 24" fill="none" xmlns="http://www.w3.org/2000/svg">
<path d="M21 21H7C4.79086 21 3 19.2091 3 17L3 3" stroke="#4F3422" stroke-width="2" stroke-linejoin="round"/>
<path d="M8 21V13" stroke="#4F3422" stroke-width="2" stroke-linejoin="round"/>
<path d="M12 13C12 12.4696 11.7893 11.9609 11.4142 11.5858C11.0391 11.2107 10.5304 11 10 11C9.46957 11 8.96086 11.2107 8.58579 11.5858C8.21071 11.9609 8 12.4696 8 13" stroke="#4F3422" stroke-width="2" stroke-linejoin="round"/>
<path d="M15 21L15 8" stroke="#4F3422" stroke-width="2" stroke-linejoin="round"/>
<path d="M19 8C19 7.46957 18.7893 6.96086 18.4142 6.58579C18.0391 6.21071 17.5304 6 17 6C16.4696 6 15.9609 6.21071 15.5858 6.58579C15.2107 6.96086 15 7.46957 15 8" stroke="#4F3422" stroke-width="2" stroke-linejoin="round"/>
</svg>
