<svg width="24" height="24" viewBox="0 0 24 24" fill="none" xmlns="http://www.w3.org/2000/svg">
<path d="M21 21H7C4.79086 21 3 19.2091 3 17L3 3" stroke="#4F3422" stroke-width="2" stroke-linejoin="round"/>
<path d="M11 14C11 13.4696 10.7893 12.9609 10.4142 12.5858C10.0391 12.2107 9.53043 12 9 12C8.46957 12 7.96086 12.2107 7.58579 12.5858C7.21071 12.9609 7 13.4696 7 14" stroke="#4F3422" stroke-width="2" stroke-linejoin="round"/>
<path d="M11 7C11 6.46957 10.7893 5.96086 10.4142 5.58579C10.0391 5.21071 9.53043 5 9 5C8.46957 5 7.96086 5.21071 7.58579 5.58579C7.21071 5.96086 7 6.46957 7 7" stroke="#4F3422" stroke-width="2" stroke-linejoin="round"/>
<path d="M18 18C18 17.4696 17.7893 16.9609 17.4142 16.5858C17.0391 16.2107 16.5304 16 16 16C15.4696 16 14.9609 16.2107 14.5858 16.5858C14.2107 16.9609 14 17.4696 14 18" stroke="#4F3422" stroke-width="2" stroke-linejoin="round"/>
<path d="M18 11C18 10.4696 17.7893 9.96086 17.4142 9.58579C17.0391 9.21071 16.5304 9 16 9C15.4696 9 14.9609 9.21071 14.5858 9.58579C14.2107 9.96086 14 10.4696 14 11" stroke="#4F3422" stroke-width="2" stroke-linejoin="round"/>
</svg>
