<svg width="24" height="24" viewBox="0 0 24 24" fill="none" xmlns="http://www.w3.org/2000/svg">
<path d="M3 16H11" stroke="#4F3422" stroke-width="2" stroke-linejoin="round"/>
<path d="M11 12C11.5304 12 12.0391 12.2107 12.4142 12.5858C12.7893 12.9609 13 13.4696 13 14C13 14.5304 12.7893 15.0391 12.4142 15.4142C12.0391 15.7893 11.5304 16 11 16" stroke="#4F3422" stroke-width="2" stroke-linejoin="round"/>
<path d="M3 9H16" stroke="#4F3422" stroke-width="2" stroke-linejoin="round"/>
<path d="M16 5C16.5304 5 17.0391 5.21071 17.4142 5.58579C17.7893 5.96086 18 6.46957 18 7C18 7.53043 17.7893 8.03914 17.4142 8.41421C17.0391 8.78929 16.5304 9 16 9" stroke="#4F3422" stroke-width="2" stroke-linejoin="round"/>
<path d="M21 21H7C4.79086 21 3 19.2091 3 17L3 3" stroke="#4F3422" stroke-width="2" stroke-linejoin="round"/>
</svg>
